<?xml version="1.0" encoding="utf-8"?>
<!-- Generator: Adobe Illustrator 24.1.1, SVG Export Plug-In . SVG Version: 6.00 Build 0)  -->
<svg version="1.2" baseProfile="tiny" id="Layer_1" xmlns="http://www.w3.org/2000/svg" xmlns:xlink="http://www.w3.org/1999/xlink"
	 x="0px" y="0px" viewBox="0 0 880.84 563" xml:space="preserve">
<path fill-rule="evenodd" fill="#162A33" d="M526.98,193.78c0.46-0.59,0.92-1.2,1.23-1.73c0.13-0.37,0.23-0.94,0.3-1.31
	c1.1-5.97,3.59-10,8.65-13.13l-2.73-0.15l4.91-6.64c0.43-1.42,1.05-2.77,2.02-4.09c1.15-1.57,2.55-2.62,3.89-3.92
	c1.41-2.19,2.46-5.77,3.54-8.06l3.15-6.66l7.24,1.37c9.03,1.71,23.28,11.65,31.07,17.09c53.79,37.61,71.1,113.13,52.81,174.05
	c-5.76,19.17-18.2,45.14-32.33,59.35l-36.42,36.62l20.97-47.2c12.46-28.04,12.26-65.61,4.74-94.91
	c-3.34-13.04-7.82-23.86-13.93-33.68c0.59,4.55,0.81,9.07,0.77,13.61l2.83,4.01c3.67,5.19,3.46,15.7,3.33,21.92
	c-0.11,5.37-0.33,11.79-1.22,17.09c-4.49,26.75-18.52,58.49-38.36,77.3c-4.34,4.11-8.88,7.64-15.3,5.82l-9.47-2.69l3-9.38
	c1.72-5.36,3.89-10.5,5.77-15.75c-3.65,4.08-7.44,7.85-12.29,11.92c-10.21,8.58-29.36,22.06-42.86,22.14l-5.77,0.04l-8.41-15.84
	l5.05-3.56c-0.72-2.28-2.01-5.37-2.75-7.35l-7.9-13.88l10.97-3.68c25.74-8.62,47.93-35.83,57.54-60.53
	c10.4-26.75,8.74-65.18-14.2-85.35l-4.82-4.24l2.12-6.06c0.19-0.54,0.64-1.48,0.74-2.02l0.28-8l7.93-1.1
	C525.22,194.94,525.73,194.75,526.98,193.78"/>
<path fill-rule="evenodd" fill="#1B6584" d="M552.58,168.92c6.26,0.34,17.02,7.8,22.19,11.65c22.17,16.56,38.56,38.73,47.18,67.21
	c6.18,20.44,9.83,40.75,8.22,61.6c-0.7,9.14-5.69,42.99-12.49,50.88c0.22-7.55,6.95-24.11,3.21-48.88
	c-2.98-19.74-9.16-37.78-18.26-53.97c-28.59-50.92-65.71-51.74-68.8-56.92c-3.1,2.47-4.76,3.53-9.44,4.17
	c-0.08,2.15-0.8,3.49-1.27,4.83c26.76,23.53,28.2,66.58,16.78,95.95c-10.85,27.9-35.28,56.7-63.39,66.11l2.58,4.53
	c2.75-5.02,39.56-11,64.9-69.71c8.11-18.78,10.82-38.2,7.9-59.86c10.41,11.96,11.69,50.81,9.56,70.01
	c-0.75,6.8-3.38,13.82-3.84,20.52l6.25-9.18c2.31-2.99,2.43-5.92,4.11-9.04l7.77-18.83c-1.61-0.53-1.51,0.89-0.37-4.54
	c0.4-1.9,0.59-3.35,0.82-5.3c1.46-12.33,1.95-24.23-1.19-36.74c-4.98-19.85-13.54-28.71-24.49-40.02c3.03,2.06,6.57,3.5,9.55,5.98
	c3.03,2.51,5.58,3.92,8.82,6.88c20.57,18.77,33.03,37.38,40.33,65.84c9.18,35.8,6.59,74.46-5.26,101.14
	c12.73-12.8,24.6-37.52,29.96-55.38c17.7-58.95-0.21-129.29-49.15-163.51c-6.5-4.54-20.64-14.26-27.39-15.54
	C555.42,162.98,555.04,165.61,552.58,168.92z"/>
<path fill="none" stroke="#162A33" stroke-width="0.216" stroke-miterlimit="2.6131" d="M552.58,168.92
	c6.26,0.34,17.02,7.8,22.19,11.65c22.17,16.56,38.56,38.73,47.18,67.21c6.18,20.44,9.83,40.75,8.22,61.6
	c-0.7,9.14-5.69,42.99-12.49,50.88c0.22-7.55,6.95-24.11,3.21-48.88c-2.98-19.74-9.16-37.78-18.26-53.97
	c-28.59-50.92-65.71-51.74-68.8-56.92c-3.1,2.47-4.76,3.53-9.44,4.17c-0.08,2.15-0.8,3.49-1.27,4.83
	c26.76,23.53,28.2,66.58,16.78,95.95c-10.85,27.9-35.28,56.7-63.39,66.11l2.58,4.53c2.75-5.02,39.56-11,64.9-69.71
	c8.11-18.78,10.82-38.2,7.9-59.86c10.41,11.96,11.69,50.81,9.56,70.01c-0.75,6.8-3.38,13.82-3.84,20.52l6.25-9.18
	c2.31-2.99,2.43-5.92,4.11-9.04l7.77-18.83c-1.61-0.53-1.51,0.89-0.37-4.54c0.4-1.9,0.59-3.35,0.82-5.3
	c1.46-12.33,1.95-24.23-1.19-36.74c-4.98-19.85-13.54-28.71-24.49-40.02c3.03,2.06,6.57,3.5,9.55,5.98
	c3.03,2.51,5.58,3.92,8.82,6.88c20.57,18.77,33.03,37.38,40.33,65.84c9.18,35.8,6.59,74.46-5.26,101.14
	c12.73-12.8,24.6-37.52,29.96-55.38c17.7-58.95-0.21-129.29-49.15-163.51c-6.5-4.54-20.64-14.26-27.39-15.54
	C555.42,162.98,555.04,165.61,552.58,168.92z"/>
<path fill-rule="evenodd" fill="#0992C5" d="M581.9,283.91c-1.17,1.59-5.77,14.09-6.16,16.1l-7.77,18.83
	c-1.68,3.12-1.8,6.05-4.11,9.04l-6.25,9.18c0.46-6.7,3.08-13.72,3.84-20.52c2.13-19.21,0.85-58.05-9.56-70.01
	c2.92,21.66,0.21,41.08-7.9,59.86c-25.34,58.7-62.15,64.68-64.9,69.71c2.04,6.22,6.18,13.74,2.91,16.94
	c-0.15,0.14-1.25,0.71-1.55,0.92l1.77,3.33c10.89-0.07,29.56-13.84,36.79-19.91c9.11-7.65,12.5-12.08,19.09-20.26
	c1.96-2.44,3.28-4.76,5.59-6.97c0.56-2.47,8.53-13.39,10.71-15.29c0.19,8.96-2.83,21.46-4.65,29.74
	c-2.28,10.35-6.24,18.08-9.03,26.8c1.95,0.55,3.87-1.4,6.16-3.56c18.1-17.16,31.32-46.96,35.52-71.97
	C583.25,310.78,584.66,287.8,581.9,283.91"/>
<path fill-rule="evenodd" fill="#0696C9" d="M552.58,168.92c-3.74,3.9-3.98,2.4-4.77,7.95c-1.63,11.51-8.12,5.66-9.95,15.59
	c-0.78,4.25-1.61,4.6-4.03,8.03c3.1,5.18,40.21,6,68.8,56.92c9.09,16.19,15.28,34.23,18.26,53.97c3.74,24.77-3,41.32-3.21,48.88
	c6.79-7.89,11.78-41.74,12.49-50.88c1.61-20.85-2.04-41.17-8.22-61.6c-8.62-28.48-25.01-50.65-47.18-67.21
	C569.61,176.72,558.84,169.26,552.58,168.92"/>
<path fill-rule="evenodd" fill="#162A33" d="M351.86,385.52c-0.46,0.59-0.92,1.2-1.23,1.73c-0.13,0.37-0.23,0.94-0.3,1.31
	c-1.1,5.97-3.59,10-8.65,13.13l2.73,0.15l-4.91,6.64c-0.43,1.42-1.05,2.77-2.02,4.09c-1.15,1.57-2.55,2.62-3.89,3.92
	c-1.41,2.19-2.46,5.77-3.54,8.06l-3.15,6.66l-7.24-1.37c-9.03-1.71-23.28-11.65-31.07-17.09c-53.79-37.61-71.1-113.13-52.81-174.05
	c5.76-19.17,18.2-45.14,32.33-59.35l36.42-36.62l-20.97,47.2c-12.46,28.04-12.26,65.61-4.74,94.91
	c3.34,13.04,7.82,23.86,13.93,33.68c-0.59-4.55-0.82-9.07-0.77-13.61l-2.83-4.01c-3.67-5.19-3.46-15.7-3.33-21.92
	c0.11-5.37,0.33-11.79,1.22-17.09c4.49-26.75,18.52-58.49,38.36-77.3c4.33-4.11,8.88-7.64,15.3-5.82l9.47,2.69l-3,9.38
	c-1.72,5.36-3.89,10.5-5.77,15.75c3.64-4.08,7.44-7.85,12.29-11.92c10.21-8.58,29.36-22.06,42.86-22.14l5.77-0.04l8.41,15.84
	l-5.05,3.56c0.72,2.28,2.01,5.37,2.75,7.35l7.9,13.88l-10.97,3.68c-25.74,8.62-47.93,35.83-57.54,60.54
	c-10.4,26.75-8.74,65.18,14.2,85.35l4.82,4.24l-2.12,6.06c-0.19,0.54-0.64,1.48-0.74,2.02l-0.28,8l-7.93,1.1
	C353.62,384.36,353.11,384.55,351.86,385.52"/>
<path fill-rule="evenodd" fill="#1B6584" d="M326.26,410.38c-6.26-0.34-17.02-7.8-22.19-11.65c-22.17-16.56-38.56-38.73-47.18-67.21
	c-6.18-20.44-9.83-40.75-8.22-61.6c0.7-9.14,5.69-42.99,12.49-50.88c-0.22,7.55-6.95,24.11-3.21,48.88
	c2.98,19.74,9.16,37.78,18.26,53.97c28.59,50.92,65.71,51.74,68.8,56.92c3.1-2.47,4.76-3.53,9.44-4.17c0.08-2.15,0.8-3.49,1.27-4.83
	c-26.76-23.53-28.2-66.58-16.78-95.95c10.85-27.9,35.28-56.7,63.39-66.11l-2.58-4.53c-2.75,5.02-39.56,11-64.9,69.71
	c-8.11,18.78-10.82,38.2-7.9,59.86c-10.41-11.96-11.69-50.81-9.56-70.01c0.75-6.8,3.38-13.82,3.84-20.52l-6.25,9.18
	c-2.31,2.99-2.43,5.92-4.11,9.04l-7.77,18.83c1.61,0.53,1.51-0.89,0.37,4.54c-0.4,1.9-0.59,3.35-0.82,5.3
	c-1.46,12.33-1.95,24.23,1.19,36.74c4.98,19.85,13.54,28.71,24.49,40.02c-3.03-2.06-6.57-3.5-9.55-5.98
	c-3.03-2.51-5.58-3.92-8.82-6.88c-20.57-18.76-33.03-37.38-40.33-65.84c-9.18-35.8-6.59-74.46,5.26-101.14
	c-12.73,12.8-24.6,37.52-29.96,55.38c-17.7,58.95,0.21,129.29,49.15,163.51c6.5,4.54,20.64,14.26,27.39,15.54
	C323.42,416.32,323.81,413.69,326.26,410.38z"/>
<path fill="none" stroke="#162A33" stroke-width="0.216" stroke-miterlimit="2.6131" d="M326.26,410.38
	c-6.26-0.34-17.02-7.8-22.19-11.65c-22.17-16.56-38.56-38.73-47.18-67.21c-6.18-20.44-9.83-40.75-8.22-61.6
	c0.7-9.14,5.69-42.99,12.49-50.88c-0.22,7.55-6.95,24.11-3.21,48.88c2.98,19.74,9.16,37.78,18.26,53.97
	c28.59,50.92,65.71,51.74,68.8,56.92c3.1-2.47,4.76-3.53,9.44-4.17c0.08-2.15,0.8-3.49,1.27-4.83
	c-26.76-23.53-28.2-66.58-16.78-95.95c10.85-27.9,35.28-56.7,63.39-66.11l-2.58-4.53c-2.75,5.02-39.56,11-64.9,69.71
	c-8.11,18.78-10.82,38.2-7.9,59.86c-10.41-11.96-11.69-50.81-9.56-70.01c0.75-6.8,3.38-13.82,3.84-20.52l-6.25,9.18
	c-2.31,2.99-2.43,5.92-4.11,9.04l-7.77,18.83c1.61,0.53,1.51-0.89,0.37,4.54c-0.4,1.9-0.59,3.35-0.82,5.3
	c-1.46,12.33-1.95,24.23,1.19,36.74c4.98,19.85,13.54,28.71,24.49,40.02c-3.03-2.06-6.57-3.5-9.55-5.98
	c-3.03-2.51-5.58-3.92-8.82-6.88c-20.57-18.76-33.03-37.38-40.33-65.84c-9.18-35.8-6.59-74.46,5.26-101.14
	c-12.73,12.8-24.6,37.52-29.96,55.38c-17.7,58.95,0.21,129.29,49.15,163.51c6.5,4.54,20.64,14.26,27.39,15.54
	C323.42,416.32,323.81,413.69,326.26,410.38z"/>
<path fill-rule="evenodd" fill="#0992C5" d="M296.94,295.39c1.17-1.59,5.77-14.09,6.16-16.1l7.77-18.83
	c1.68-3.12,1.8-6.05,4.11-9.04l6.25-9.18c-0.46,6.7-3.08,13.72-3.84,20.52c-2.13,19.21-0.85,58.05,9.56,70.01
	c-2.92-21.66-0.21-41.08,7.9-59.86c25.34-58.7,62.15-64.68,64.9-69.71c-2.04-6.22-6.18-13.74-2.91-16.94
	c0.15-0.14,1.25-0.71,1.55-0.92l-1.77-3.33c-10.89,0.07-29.56,13.84-36.79,19.91c-9.11,7.65-12.5,12.08-19.09,20.26
	c-1.96,2.44-3.28,4.76-5.59,6.97c-0.56,2.47-8.53,13.39-10.71,15.29c-0.19-8.96,2.83-21.46,4.65-29.74
	c2.28-10.35,6.24-18.08,9.03-26.8c-1.95-0.55-3.87,1.4-6.16,3.56c-18.1,17.16-31.32,46.96-35.52,71.97
	C295.59,268.52,294.18,291.5,296.94,295.39"/>
<path fill-rule="evenodd" fill="#0696C9" d="M326.26,410.38c3.74-3.9,3.98-2.4,4.77-7.95c1.63-11.51,8.12-5.66,9.95-15.59
	c0.78-4.25,1.61-4.6,4.03-8.03c-3.1-5.18-40.21-6-68.8-56.92c-9.09-16.19-15.28-34.23-18.26-53.97c-3.74-24.77,3-41.32,3.21-48.88
	c-6.79,7.89-11.78,41.74-12.49,50.88c-1.61,20.85,2.04,41.17,8.22,61.6c8.62,28.48,25.01,50.65,47.18,67.21
	C309.24,402.58,320,410.04,326.26,410.38"/>
<path fill-rule="evenodd" fill="#162A33" d="M547.52,99.22c2.82,7.49,3.63,9.73,2.37,18.91c-0.84,6.15-2.35,12.27-4.35,17.75
	c-8.08,22.14-18.47,38.31-29.56,57.98c-2.88,5.11-15.94,24.3-16.83,26.84l-15.46-2.1c1.56-8.09,3.46-15.03,4-23.87
	c0.31-5.02-0.59-7.71,0.31-12.58c0.77-4.15,0.96-8.51,1.19-12.79c14.29-3.54,24.81-3.02,36.23-10.97c8.62-6,16.28-20.05,16.81-30.05
	c-14.73,1.36-19.68,2.04-34.23-1.59c-15.37-3.83-40.04-13.58-53.29-21.42c-13.53-8-28.72-11.66-44.18-2.34
	c-16.89,10.17-50.34,22.95-69.77,23.72c-20.21,0.8-22.99-8.54-26.28-10.98c-1.57,3.54,3.44,18.1,4.96,21.6
	c9.33,21.52,28.92,29.07,51.72,31.56c-0.06,4.54,0.08,8.54,0.72,12.98c0.78,5.39-0.79,6.5-0.44,11.78
	c0.53,8.05,3.29,14.83,4.05,21.34l-7.24,4.41c-2.33,1.07-7.09,0.6-10.26,1.44c-17.42,4.64-47.58,20.12-53.4,39.32
	c-2.24,7.39-3.32,22.47-0.92,30.63c1.93,6.54-2.78,13.64-2.8,30.05c-0.03,25.45,8.43,28.57,12.21,35.29l-8.26-0.59l-3.21,5.18
	l-33.26-5.48c1.5,6.84,3.23,5.99,3.22,15.19l0.02,32.67c0.06,27.87-2.43,15.42-5.16,28.31l81.79-0.88l0.29,28.61
	c59.44,12.71,124.15,9.64,167.66-0.17c0.34-9.12-0.25-19.4,0.26-28.3c9.63,0.07,14.41,0.19,24.47-0.62
	c21.95-1.77,56.13,12.12,56.13-22.86c0-13.8,0.98-15.1-4.25-25.2l3.53-0.99c0.06-8.36,0.56-17.14-0.28-25.46
	c-5.5-0.12-16.88,2-23.02,2.8c-10.3,1.33-5.54-0.49-11.65-0.05c-3.97,0.29-8.09,0.73-12.05,1.21c3.32-4.18,6.74-7.35,8.97-13.64
	c3.82-10.8,1.11-27.68-1.19-38.84c-3.09-14.99-3.48-7.44,0.25-15.8c5.49-12.3,3.85-23.8-2.63-34.4
	c-4.24-6.92-14.52-17.27-22.72-20.39c1.44-3.12,3.23-5.57,5.08-8.65c11.7-19.48,21.6-38.15,30.11-59.74
	c4.79-12.16,9.84-29.15,5.98-43.48C569.7,111.72,556.7,99.38,547.52,99.22 M334.01,142.9l-4.18-6.6l4.29,0.94
	c12.87-0.18,23.73-2.9,35.12-6.7c5.13-1.71,10.59-3.23,15.44-4.92c3.73-1.3,12.11-5.05,15.02-5.45l2.81-1.87
	c7.43-3.78,15.25-9.28,22.44-10.15c10.72,1.94,17.49,13.87,22.43,22.02c3.25,5.35,13.31,23.15,15.22,28.41l2.47,0.07
	c8.34,0.14,24.99-2.64,33.44-4.42c7.89-1.66,21.18-4.45,25.23-12.42c-11.08,0.45-14.43-0.87-24.49-3.99
	c-21.03-6.52-32.17-13.06-50.43-23.09c-2.7-1.48-7.69-3.71-9.47-5.18c4.45,0.82,16.02,7.44,20.68,9.74c6.72,3.32,13.53,6.19,20.76,9
	c14.05,5.46,31.98,11.06,48.42,11.2c-1.54,5.77-9.47,11.52-15.54,14.16c-6.22,2.71-17.09,4.46-24.27,5.47
	c-37.61,5.31-74.7,4.93-112.39,0.62C360.73,157.87,343.64,154.99,334.01,142.9z M559.14,164.54c-11.38,26.48-21.81,47.9-37.79,71.45
	c-7.57,11.16-14.86,21.91-22.51,32.33c-2.08,2.84-21.55,28.12-23.92,30.01c-1.84-0.72-5.23-2.48-7.22-3.53l-0.17-0.27l-8.59-4.51
	l-2.84-1.28c1.38-1.92,2.59-3.2,4.01-4.9c1.47-1.76,2.79-2.65,4.23-4.51c6.67-8.57,15.08-17.6,23.15-28.21
	c21.14-27.8,59.59-85.7,68.96-120.68c1.27-4.75,1.51-9.68,2.62-14.16c1.28,1.21,1.07,0.85,1.44,2.52l1.26,1.36
	c0.02,0.03,0.71,1.02,0.73,1.06C571.13,135.17,562.12,154.73,559.14,164.54z M478.44,170.25c-0.02,6.73-2.1,16.72-6.92,19.94
	c0.28-5.87,1.73-13.76-2.25-16.56l-4.18-2.37L478.44,170.25z M387.53,189.77c-0.42,1.85-0.32,1.01-0.78,1.64
	c-4.25-7.69-6.27-11.2-5.09-22.93l34.75,3.1l15.45,0.73c-9.16,3.44-39.79-1.73-43.55,2.96
	C385.77,178.45,387.88,185.41,387.53,189.77z M443.2,181.47c0.54-0.64,0.27-0.42,0.98-1.03l2.69-1.46
	c20.38-7.21,19.69,11.25,14.57,15.18c-3.38,2.6-12.92,4.35-17.82,3.85c-8.55-0.88-9.4-1.55-19.71-1.36c-1.62,0.1-2.82,0.21-4.3,0.24
	c-2.05,0.03-0.7-0.05-3.12,0.68c-2.37,0.72-5.76,0.97-7.51-0.01c-3.3,0.53-7.28-1.07-10.18-2.46c-3.87-1.85-4.25-3.13-4.62-8.44
	c-0.79-11.4,5.19-11.17,15.04-10.63l2.84,0.14l31.62-0.16l-2.14,6.34C442.28,181.83,442.84,181.66,443.2,181.47z M423.92,247.44
	c-9.81-2.26-19.76-9.9-26.48-17.16c-0.99-1.07-1.34-1.07-2.49-2.17c-4.45-4.23-8.17-12.03-9.85-18.58l-0.19-1.91
	c-1.49-3.7-3.19-9.82-3.49-14.45c2.35,1.29,3.98,2.86,7.23,4.46c2.81,1.39,5.08,2.1,8.09,3.09c6.47,0.61,13.73,2.09,20.27,0.36
	c17.55-4.17,19.85,6.58,48.29-2.52c2.34-0.75,4.57-1.59,6.75-2.56c2.42-1.08,3.53-2.37,5.71-3.07c-0.9,8.06-1.46,16.18-4.44,23.59
	c-5.44,13.51-24.33,26.61-37.91,30.95c-3.02,0.97-6.16,1.46-9.33,0.77c-0.66-0.14-0.58-0.15-1.35-0.42
	c-0.1-0.03-0.34-0.01-0.41-0.19C424.26,247.46,424.06,247.52,423.92,247.44z M492.53,231.64c-0.66,1.8-13.97,21.73-17.26,24.08
	c0.38-1.62,4-11.21,4.19-11.47c1.07-7.4,0.87-10.19-0.51-17.36c4.35,0.54,11.51,1.43,14.86,3.09L492.53,231.64z M336.92,256.52
	c-15.28-1.15-13.39,0.49-23.66,5.48c4-10.31,16.88-17.98,27.76-23.72c24.25-12.79,20.95-6.71,29.07-9.45
	c1.75-0.59,7.47-4.42,8.37-2.57c2.95,1.43,5.84,3.75,7.83,5.97c6.42,4.23,3.87,3.69,7.39,10.82c0.52,0.5,0.44,0.38,0.96,1.04
	c0.85,1.07-0.29-0.51,0.52,0.72l8.01,12.45c1.74,2.4,2.89,4.57,4.77,6.89l16.11,18.88c2.59,2.49,4.49,2.17,5.23,6.29
	c0.93,5.2,3.36,3.77,3.97,6.66c-4.69,0.55-5.29,0.84-8.79-1.68c-8.94-6.44-6.73-6.36-10.99-10.03
	c-7.45-6.44-18.71-22.27-22.17-31.02c-1.2,4.27,6.02,18.31,7.03,22.99c-0.63-0.82-1.88-1.89-2.62-2.8
	c-4.75-5.76-13.51-20.49-12.73-27.54l-1.09-9.46c-2.86,16.68,0.63,24.52,7.31,37.1c3.17,5.96,14.51,23.86,18.89,27.21
	c-14.14-7.85-32.54-26.94-36.75-44.36c-0.73-3.01-0.94-6.9-2.02-9.22c-2.83,6.62,0.65,22.45,2.81,29.38
	c4.31,13.82,5.8,13.94,9.86,23.68l-31.4-36.51c-4.05-3.39-4.95-4.97-7.81-4.53c-1.69,0.26-3.45-0.85-4.67-1.68l-0.8-0.64
	C337.25,256.63,337.05,256.64,336.92,256.52z M422.48,265.39c1.89,3.95,4.21,4.33,6.84,7.66l-1.48,2.47
	c-2.75-0.48-10.29-11.39-12.06-15.36l6.86,3.47c2.01-0.32,0.64,0.7,1.63-0.68c-2.13-1.59-4.08-4.1-5.84-6.43
	c-1.93-2.55-3.11-4.73-4.68-7.32c4.72,1.91,8.12,4.89,15.09,4.78c6.09-0.09,10.31-3.11,15.12-4.87c-0.9,1.93-1.42,1.8-2.9,3.41
	c-4.3,4.66-6.45,4.27-11.46,7.46l8.53-0.32c-0.96,1.98-4.2,5.74-6.18,6.53c-3.28,1.32-5.36-0.18-7.79-0.76L422.48,265.39z
	 M440.07,283.06l-4.79-0.23c6.31-5.55,9.79-9.06,15.09-15.74c2.43-3.06,10.29-14.08,13.58-16.64c1.26-1.84,0.93-1.48,3.07-2.29
	c-0.32,11.6-6.05,22.63-12.01,28.49l2.02-7.54l-6.82,7.73c-4.45,5.73-1.36,2.09-5.22,5.29c-0.82,0.68-0.62,0.66-1.58,1.48
	L440.07,283.06z M513.86,261.41c1.2-1.9,5.94-9.39,7.45-10.29c0.51-1.66,3.14-5.35,4.37-6.86c8.52,1.69,23.59,15.71,26.31,27.72
	c-1.92-0.99-2.3-2.45-4.29-4.09c-1.24-1.02-2.67-2.29-4.27-3.3c-3.36-2.11-8-3.18-12.48-3.36c-10.68-0.43-16.17,4.32-22.49,8.09
	C508.97,267.54,512.53,262.63,513.86,261.41z M359.58,314.48c13.29,0.93,29.63-3.11,42.83-3.72l19.74-2.66
	c1.6,0.9,0.89,0.09,1.4,1.67c1.07,1.43,1.37,4.52,1.45,6.65c-9.91,1.93-18.75,4.15-28.24,6.14c-8.78,1.85-20.5,4.9-29.32,5.48
	c-8.57,0.77-23.62,7.6-37.79,7.35c-0.24,0.59-2.11-0.23,1.56,0.98l-3.69,0.57c8.22,3.35,29.87,1.78,39.65,0.32
	c11.84-1.78,23.17-6.09,34.3-8.09c-11.86,6.71-27.81,15.19-41.33,19.23l-2.69,1.1c7.29,0.79,13.21-1.22,19.72-0.91
	c-5.75,0.71-21.86,8.5-40.41,5.85c-14.39-2.06-22.35-8.36-25.19-21.84c-1.09-7.38-0.49-11.37-0.78-18.42
	c-0.9-14.66,15.26-42.71,24.73-51.24l1.18,0.79l1.18,0.43c11.54,10.38,13.25,17,19.55,25.51c-5.14-3.35-9.71-8.44-18.51-9.66
	l-1.58,0.38c9.34,6.82,4.85,4.32,10.99,10.67l9.24,12.02c-10.9-3.13-22.88-0.14-25.53,11.4L359.58,314.48z M508.8,283.97
	c1.29-3.28,5.52-8,8.56-9.33c0.25-0.23,0.4-0.37,1.01-0.77l2.69-1.4c2.07-1,2.3-1.18,4.58-1.56c5.04-0.88,5.81,1.26,7.82,4.23
	c11.14,16.47,25.32,49.09,3.37,63.57c-0.36,1.73-3.49,2.53-6.46,3.75c-13.76,5.64-49,9.82-60.07,5.03l-0.92-0.53
	c15.14-0.61,25.85-1.49,39.47-6.79c11.26-4.38,21.57-10.96,25.39-19.64c-7.66,3.97-23.06,7.64-33.28,7.53
	c0.5-0.43,0.43-0.4,1.28-0.83l6.47-2.38c2.52-1.07,4.18-1.86,6.56-3.36c3.26-2.05,3.45-2.19,5.8-4.7c2.72-2.9,4.7-0.78,5.07-4.77
	c-1.58-2.28-4.68-2.45-8.4-2.53c0.92-4.92,1.33-14.42,0.01-19.7l-0.78-1.91c-0.04-0.26-0.17-0.31-0.27-0.45
	c-0.03,4.31-1.02,9.17-2.84,12.8c-1.7,3.38-4.61,6.89-7.41,8.21l-0.12-2.08c-0.76-4.93-0.98-7.84-2.74-12.41
	c-1.45-3.74-3.6-7.16-4.62-10.62c4.86,3.95,5.03,6,7.24,7.4C506.64,287.95,506.98,285.75,508.8,283.97z M465.64,299.78
	c-5.68-3.39-16.64-8.43-23.73-9.43c-7.53-1.07-5.93,1.25-6.01,1.67l-0.07,1.28c-8.86-5.42-2.57-14.05,28.35,2.11
	c5.69,2.97,11.22,6.39,15.9,9.77c2.83,2.04,4.88,3.3,7.04,5.8c1.97,2.28,6.02,4.01,3.49,8c-2.1-0.28-1.38-0.42-3.13-2.5
	c-3.88-4.63-1.81-2.11-5.61-5.49c-1.32-1.17-1.61-1.5-2.8-2.44C475.31,305.53,470.32,302.57,465.64,299.78z M482.46,302.49
	c4.61-3.88,7.83-9.58,10.46-11.86c2.49,5.41,2.62,10.14-0.2,15.3c-1.26,2.31-0.6,1.36-2.62,2.94l-5.94-4.26
	C481.96,302.92,483.4,304.79,482.46,302.49z M445.27,299.61c9.64,1.97,19.39,8.26,26.32,14.8c-0.62,2.16-1.99,2.54-1.56,5.19
	c0.42,2.64,2.01,1.83,1.9,4.69c-0.15,3.94-3.88,4.19-6.22,1.22c-0.34,3.06,2.28,6.29,0.16,7.9c-3.32,2.52-4.14-1.46-6.22-1.1
	l-0.19,2.68c-0.07,2.3-0.07,2.32-1.32,3.29c-1.13,0.98-1.84,1.4-4.22,1.35c-4.89-0.1-11.84-10.02-23.44-9.8l0.02-7.53
	c-0.23-5.17-2.24-8.73-3.92-12.68l-1.77-2.17c3.75-0.93,7.32-1.75,10.31-3.65C440.22,300.56,437.72,300.5,445.27,299.61z
	 M434.09,338.92c-2.07,0.23-1-0.51-1.89,0.58l1.42,3.96l-4.19-2.32c0.82,2.76,1.85,2.87,2.2,5.8l-3.46-0.33
	c-0.03,2.19,0.77,1.76,1.25,3.76c-2.27-0.31-4.41-1.36-6.22-0.14c1.38,3.19,4.92,4.84,10.01,4.45l6.81-9.26
	c3.37-4.73,5.03-8.01,7.26-6.91c0.6,1.79-1.27,3.7-2.21,4.96l-9.01,12.58c-5.01,6-17.51,1.53-18.44-5.15
	c0.49-2.36,1.72-2.99,2.89-4.56c1.72-2.31,8.21-11.86,10.21-12.61c3.31-2.15,5.97,0.56,7.84,2.15l-4.28-0.58
	c0.95,1.6,1.85,1.84,2.34,4.56L434.09,338.92z M558.66,380.04l-0.26,8.2c23.15,2.65,31.08-6.99,28.64,22.47
	c-0.8,9.65-6.02,9.84-15.26,9.66c-8.31-0.16-16.65-0.25-24.95-0.54l0.48-10.79c4.87,0.13,25.83,1.69,28.49-0.09
	c1.5-1.38,0.87-6.24,0.38-7.93c-3.88-1.99-17.63-1.19-23.05-1.99c-7.15-1.07-5.88-9.04-5.45-19.87c0.4-10.08,5.79-9.37,14.89-10.18
	c7.84-0.7,15.61-1.56,23.41-2.12l0.07,11.18C578.71,378.39,564.83,378.58,558.66,380.04z M462.65,408.34
	c2.28,1.69,11.67,0.76,14.64,0.76l3.75-0.56c0.12-0.06,0.24-0.18,0.35-0.25c1.9-1.15-0.99-0.47,1.78-0.99
	c1.04-0.19,6.35,0.17,7.79,0.23l0.46,11.95c-10.03-0.04-21.28,0.43-31.09-0.13c-4.99-0.28-7.95-2.29-8.75-6.97
	c-0.67-3.89-0.23-11.45-0.23-15.72c0.05-26.81-3.05-22.06,39.97-23.39l0.06,18.08l-9.64,0.11l-0.09-7.43
	c-3.13-0.82-7.47-0.21-10.8-0.16c-2.82,0.05-8.21-1.09-8.9,2.24C461.34,389.01,461.64,406.82,462.65,408.34z M411.59,419.45
	l-10.91,0.03l-0.04-45.63l11.96,0.22c3.22,4.52,16.14,23.58,19.09,26.04l0.18-25.76l10.82-0.03l0.15,45.09
	c-11.95,0.06-10.55,1.08-13.33-2.97l-7.71-10.96c-2.41-3.59-7.88-11.82-10.23-13.91L411.59,419.45z M292.11,420.27l-10.54,0.07
	l-0.15-52.83c3.72-0.1,10.5,0.07,12.33,3.21c1.84,3.17,3.98,7.33,5.66,10.67c3.65,7.27,7.82,14.51,11.44,21.11
	c2.35-1.76,7.56-12.45,9.28-15.35c2.36-3.99,7.38-12.39,8.77-16.3l12.31,0.78l-0.05,48.17l-10.92,0.13l-0.17-25.96
	c-2.54,0.91-14.16,24.16-14.82,26.25l-7.18,0.09c-3.76-4.54-12.25-24.1-15.17-26.51C291.1,398.84,293.85,414.6,292.11,420.27z
	 M345.02,419.75l17.65-46.66l14.17,0.61c1.65,2,3.59,8.8,4.65,11.36c1.59,3.86,2.8,7.43,4.46,11.33c2.92,6.85,6.43,16.01,8.68,23.16
	l-10.73,0.04c-1.76-1.24-3.48-7.41-4-9.63l-20.06-0.13C357.59,422.36,355.9,419.87,345.02,419.75z M539.87,370.59
	c0.12,53.88,4.46,49.26-18.85,49.15c-5.51-0.03-16.73,1.15-20.15-2.33c-3.87-3.93-2.47-13.66-2.47-19.57
	c-0.02-25.82-1.8-25.03,19.49-26.03C525.16,371.47,532.56,370.75,539.87,370.59z"/>
<path fill-rule="evenodd" fill="#FCFCFD" d="M292.11,420.27c1.74-5.66-1.01-21.43,0.78-26.48c2.92,2.41,11.4,21.97,15.17,26.51
	l7.18-0.09c0.66-2.09,12.29-25.34,14.82-26.25l0.17,25.96l10.92-0.13l0.05-48.17l-12.31-0.78c-1.39,3.91-6.41,12.31-8.77,16.3
	c-1.72,2.9-6.93,13.58-9.28,15.35c-3.62-6.6-7.79-13.83-11.44-21.11c-1.68-3.34-3.82-7.5-5.66-10.67
	c-1.83-3.15-8.61-3.31-12.33-3.21l0.15,52.83L292.11,420.27z"/>
<path fill-rule="evenodd" fill="#FCFCFD" d="M399.71,120.17c-0.54,0.51,0.46-0.16-1.01,0.75l-2.73,1.33
	c-10.09,4.86-14.38,7.02-25.93,11.42c-10.04,3.82-24.82,7.94-35.91,3.58l-4.29-0.94l4.18,6.6c6.74,4.5,12.18,6.94,21.77,9.39
	c5.38,1.38,22.08,5.35,26.99,4.53c5.24-0.75,10.95-1.08,15.61-2.99c11.19-4.8,14.38-19.52,20.22-32.25c1.6-3.48,4.61-9.07,5.62-12
	C416.97,110.88,406.07,119.37,399.71,120.17"/>
<path fill-rule="evenodd" fill="#0696C9" d="M417.02,201.09c0.48,0.93-0.25,0.7,0.56,1c-4.21,1.32-17.74,4.61-21.83,1.97l-9.29-1.28
	c1.87,4.41,5.03,5.06,6.91,8.45c-3.3-0.87-5.97-2.35-8.45-3.6l0.19,1.91c2.98,1.45,8.05,7.47,10.79,8.34
	c-2.74-0.07-4.15-1.17-6.54-1.92c4.11,9.12,19.74,23.27,29.48,28.54c1.34,0.73,4.12,1.83,5.08,2.95c0.13,0.08,0.34,0.02,0.41,0.2
	c0.07,0.18,0.31,0.15,0.41,0.19c0.77,0.27,0.69,0.28,1.35,0.42c3.16,0.69,6.31,0.2,9.33-0.77c13.58-4.34,32.47-17.44,37.91-30.95
	c2.98-7.41,3.54-15.53,4.44-23.59c-2.19,0.7-3.29,1.99-5.71,3.07c-2.18,0.98-4.41,1.82-6.75,2.56
	C436.87,207.67,434.57,196.92,417.02,201.09 M465.73,220.14c-1.29,2.99-4.52,6.99-6.25,8.79c-1.53,1.58-2.67,2.12-4.12,3.49
	c-2.26,2.12-0.95,1.67-4.19,3.17c-1.83,2.37-12.94,9.9-18.24,10.03c-6.53,0.16-16.98-4.43-20.43-7.46c12.53,1.11,17.77,4.63,26.57-4
	c-4.84,0.26-15.63,1.05-19.85-2.07c8.56,0.47,14.54,0.66,21.07-3.81c-11.28,0.17-23.12-1.85-31.81-6.68
	c4.1-1.21,19.35,3.08,34.34-3.29c-9.78,0.87-11.68,2.09-22.04-0.34c-2.37-0.56-4.02-0.71-5.56-2.36c6.55,0.08,11.03,1.97,18.08,1.14
	c-4.18-0.49-5.52-0.78-7.12-3.56c-1.37-2.38-2.83-6.64-0.78-8.99c2.1-1.43,17.47,0.51,21.51,0.69c7.72,0.34,14.24-0.81,21.66-1.82
	c-0.68,5-7.14,8.25-9.64,10.34l7.4-1.8c-1.26,4.39-4.87,3.95-7.29,7.98l10.12-3.92C468.47,217.19,466.79,219.44,465.73,220.14z"/>
<path fill-rule="evenodd" fill="#0696C9" d="M311.57,332.6c2.84,13.48,10.8,19.78,25.19,21.84c18.55,2.65,34.66-5.14,40.41-5.85
	c-6.51-0.31-12.43,1.7-19.72,0.91l2.69-1.1c13.52-4.04,29.47-12.51,41.33-19.23c-11.13,1.99-22.46,6.31-34.3,8.09
	c-9.78,1.47-31.43,3.03-39.65-0.32l3.69-0.57c-3.67-1.21-1.8-0.39-1.56-0.98c14.17,0.26,29.22-6.58,37.79-7.35
	c0.12-0.11,0.29-0.23,0.39-0.3c2.64-1.83,10.26-4.05,13.32-5.03l28.79-8.6c2.39-0.64,4.86-1.3,7.47-1.87
	c6.29-1.37,6.64-0.32,6.15-2.48c-0.51-1.58,0.2-0.77-1.4-1.67c-1.98,1.1-50.1,11.02-56.7,12.34c-9.89,1.98-19.81,3.48-29.56,5.43
	c-3.72,0.74-10.83,2.44-12.32,5.27c-2.32,4.42,2.44,9.78,3.71,12.58C319.12,342.39,315.62,338.06,311.57,332.6"/>
<path fill-rule="evenodd" fill="#1A6481" d="M517.36,274.64c3.48,5.91,6.75,11.31,3.3,21.03c-0.75-4.47-1.38-9.27-3.31-12.66
	l-0.67,4.42c0.11,0.14,0.23,0.19,0.27,0.45l0.78,1.91c1.32,5.27,0.91,14.78-0.01,19.7c3.72,0.07,6.82,0.24,8.4,2.53
	c-0.37,3.99-2.35,1.86-5.07,4.77c-2.35,2.51-2.54,2.65-5.8,4.7c-2.37,1.5-4.04,2.29-6.56,3.36l-6.47,2.38
	c-0.85,0.43-0.79,0.41-1.28,0.83c10.23,0.11,25.62-3.56,33.28-7.53c-3.82,8.69-14.12,15.26-25.39,19.64
	c-13.61,5.3-24.32,6.18-39.47,6.79l0.92,0.53c11.07,4.79,46.31,0.61,60.07-5.03c2.97-1.22,6.1-2.01,6.46-3.75
	c0.31-2.17-0.18-0.73,0.96-2.28c0.02-0.02,0.99-0.94,1.2-1.14c6.77-6.46,5.32-20.71,4.24-29.07c-1.14,1.92-1.01,4.01-2.58,6.26
	c-1.28,1.83-2.47,3.03-4.66,3.68l0.56-2.22l-8.54,3.44l5.44-7.44c1.34-2.13,3.54-6.09,3.98-9.08c-1.11-2.09-0.73-6.74-1.56-9.39
	c-1.61-5.17-4.07-9.83-6.84-14.24l-3.32-4.78c-0.49-1.29-0.66,0.23-0.08-1.52c-2.28,0.38-2.5,0.56-4.58,1.56l-2.69,1.4
	C517.76,274.27,517.61,274.41,517.36,274.64"/>
<path fill-rule="evenodd" fill="#FCFCFD" d="M558.66,380.04c6.17-1.46,20.04-1.65,27.39-2.02l-0.07-11.18
	c-7.8,0.56-15.57,1.43-23.41,2.12c-9.1,0.81-14.49,0.1-14.89,10.18c-0.43,10.84-1.7,18.81,5.45,19.87
	c5.42,0.81,19.17,0.01,23.05,1.99c0.49,1.69,1.11,6.56-0.38,7.93c-2.66,1.78-23.62,0.22-28.49,0.09l-0.48,10.79
	c8.3,0.3,16.64,0.39,24.95,0.54c9.25,0.17,14.46-0.01,15.26-9.66c2.44-29.46-5.49-19.82-28.64-22.47L558.66,380.04z"/>
<path fill-rule="evenodd" fill="#FCFCFD" d="M539.87,370.59c-7.31,0.16-14.71,0.88-21.99,1.23c-21.29,1-19.51,0.21-19.49,26.03
	c0,5.92-1.4,15.64,2.47,19.57c3.42,3.48,14.65,2.3,20.15,2.33C544.34,419.85,540,424.47,539.87,370.59 M509.52,408.76
	c-1.01-2.84-0.57-14.35-0.58-18.5c-0.01-10.16-0.18-7.65,10.3-8.12c11.43-0.52,9.85-2.44,9.83,8.71
	c-0.01,5.64,0.35,13.05-0.18,18.31C525.24,409.51,512.31,409.75,509.52,408.76z"/>
<path fill-rule="evenodd" fill="#FCFCFD" d="M411.56,391.56c2.35,2.09,7.82,10.32,10.23,13.91l7.71,10.96
	c2.78,4.04,1.38,3.03,13.33,2.97l-0.15-45.09l-10.82,0.03l-0.18,25.76c-2.95-2.46-15.87-21.52-19.09-26.04l-11.96-0.22l0.04,45.63
	l10.91-0.03L411.56,391.56z"/>
<path fill-rule="evenodd" fill="#1B6584" d="M327.75,251.99c-1.69,0.55-1.32,0.32-2.53,1.53c0.7,0.16,15.16,2.29,11.69,3
	c0.13,0.12,0.33,0.12,0.4,0.35l0.8,0.64c1.22,0.84,2.97,1.94,4.67,1.68c2.87-0.44,3.77,1.14,7.81,4.53l31.4,36.51
	c-4.06-9.75-5.55-9.87-9.86-23.68c-2.16-6.93-5.64-22.76-2.81-29.38c1.08,2.32,1.3,6.21,2.02,9.22
	c4.21,17.43,22.61,36.52,36.75,44.36c-4.39-3.35-15.73-21.25-18.89-27.21c-6.68-12.58-10.16-20.42-7.31-37.1l1.09,9.46
	c0.44-1.63-0.24-4.95-0.08-7.91c2.92,0.94,1.42-0.92,3.88,0.56l-0.1-0.08c0.25-2.29-0.46-3.73-0.91-6.18
	c-2.77-0.63-2.55-1.34-5.36-1.59c-5.63,7.7-2.05,29.11-2.15,36.75c-0.69-0.79-0.34,0.02-1.18-1.76l-2.54-23.64
	c-0.88-4.47-6.39-10.68-10.76-11.17c-9.64,12.04,3.04,31.27,5.49,43.15c-2.44-2.21-5.73-6.48-7.75-9.6
	c-2.36-3.63-4.52-7.12-6.87-10.63C348.67,244.89,334.71,251.17,327.75,251.99"/>
<path fill-rule="evenodd" fill="#142933" d="M451.17,235.59c-0.07-0.1-0.76-1.08-0.78-1.1c1.53-1.01,2.86-1.94,4.06-3.58l7.21-7.37
	c2.52-2.56,1.4-2.27,4.08-3.39c1.07-0.7,2.74-2.95,3.44-4.47l-10.12,3.92c2.42-4.03,6.03-3.59,7.29-7.98l-7.4,1.8
	c2.5-2.09,8.96-5.35,9.64-10.34c-7.42,1-13.94,2.15-21.66,1.82c-4.05-0.18-19.41-2.11-21.51-0.69c-2.05,2.35-0.58,6.61,0.78,8.99
	c1.6,2.79,2.94,3.07,7.12,3.56c-7.06,0.83-11.53-1.06-18.08-1.14c1.54,1.65,3.19,1.8,5.56,2.36c10.36,2.43,12.26,1.2,22.04,0.34
	c-15,6.38-30.24,2.09-34.34,3.29c8.69,4.83,20.53,6.85,31.81,6.68c-6.53,4.47-12.51,4.27-21.07,3.81
	c4.22,3.13,15.01,2.34,19.85,2.07c-8.8,8.63-14.04,5.11-26.57,4c3.45,3.03,13.9,7.62,20.43,7.46
	C438.23,245.49,449.33,237.96,451.17,235.59"/>
<path fill-rule="evenodd" fill="#1A6481" d="M398.39,153.83c-4.66,1.92-10.36,2.25-15.61,2.99c6.35,3.73,74.59,4.69,82.3,1.81
	l-2.47-0.07c-1.9-5.25-11.97-23.05-15.22-28.41c-4.94-8.14-11.71-20.08-22.43-22.02c5.63,7.55,8.89,24.21,3.62,35.05
	c-4.27,8.79-16.61,11.57-26.02,12.15C396.97,155.68,398.3,154.72,398.39,153.83"/>
<path fill-rule="evenodd" fill="#FCFCFD" d="M345.02,419.75c10.89,0.13,12.57,2.61,14.83-9.92l20.06,0.13
	c0.52,2.21,2.24,8.39,4,9.63l10.73-0.04c-2.25-7.16-5.77-16.31-8.68-23.16c-1.66-3.9-2.87-7.47-4.46-11.33
	c-1.06-2.56-3-9.36-4.65-11.36l-14.17-0.61L345.02,419.75z M369.91,383.35l6.1,16.29l-12.08,0.02
	C364.7,395.89,367.88,385.7,369.91,383.35z"/>
<path fill-rule="evenodd" fill="#FCFCFD" d="M462.65,408.34c-1.01-1.52-1.3-19.32-0.71-22.19c0.69-3.33,6.09-2.2,8.9-2.24
	c3.33-0.06,7.67-0.66,10.8,0.16l0.09,7.43l9.64-0.11l-0.06-18.08c-43.01,1.33-39.92-3.42-39.97,23.39
	c-0.01,4.27-0.44,11.83,0.23,15.72c0.8,4.68,3.76,6.68,8.75,6.97c9.81,0.56,21.06,0.09,31.09,0.13l-0.46-11.95
	c-1.43-0.06-6.75-0.43-7.79-0.23c-2.77,0.52,0.12-0.16-1.78,0.99c-0.11,0.07-0.23,0.19-0.35,0.25l-3.75,0.56
	C474.32,409.1,464.93,410.03,462.65,408.34"/>
<path fill-rule="evenodd" fill="#86A0AF" d="M467.71,294.8c2,1.05,5.39,2.8,7.22,3.53c2.37-1.89,21.83-27.17,23.92-30.01
	c7.65-10.42,14.94-21.18,22.51-32.33c15.97-23.54,26.4-44.97,37.79-71.45c-0.78-1.25-0.28-2.78,0.05-4.43
	c0.34-1.7,0.58-3.29,0.78-4.99c0.43-3.74,0.6-8.06-0.44-11.65c-1.67,0.73-0.24-1.46-1.97,5.58l-5.52,17.24
	c-10.26,27.32-27.38,54.4-43.43,77.94c-4.19,6.14-8.41,11.85-12.76,17.56c-4.51,5.92-8.55,11.5-13.34,16.99l-11.83,14.43
	C468.71,295.66,470.31,294.64,467.71,294.8"/>
<path fill-rule="evenodd" fill="#1286B2" d="M426.58,309.61c1.68,3.95,3.68,7.51,3.92,12.68l0.59,4.1
	c5.79-0.19,10.98,2.21,15.07,4.55c4.19,2.4,7.16,6.3,11.98,7.32c1.25-0.97,1.25-0.99,1.32-3.29c-2.12,0.86-2.16,0.9-3.77-0.63
	c0.57-1.92-0.15-0.8,1.92-2.22c2.72-1.86,3.35-2.05,5.11-4.2l2.98-2.42c2.35,2.97,6.08,2.72,6.22-1.22c0.11-2.86-1.48-2.04-1.9-4.69
	c-0.42-2.65,0.94-3.03,1.56-5.19c-6.92-6.54-16.68-12.83-26.32-14.8c0.39,1.33,2.61,2.32,2.63,2.29c0.07-0.12,0.3,0.14,0.43,0.25
	C435.41,303.8,434.74,310.89,426.58,309.61"/>
<path fill-rule="evenodd" fill="#FCFCFD" d="M310.79,314.17c0.29,7.05-0.31,11.04,0.78,18.42c4.05,5.46,7.55,9.8,15.72,11.12
	c-1.27-2.8-6.04-8.17-3.71-12.58c1.49-2.83,8.59-4.53,12.32-5.27c9.76-1.94,19.67-3.45,29.56-5.43c6.6-1.32,54.72-11.24,56.7-12.34
	l-19.74,2.66c-2.82,1.93-70.37,9.56-75.15,8.31c-24.64-6.45,9.83-51.35,10.62-54.91l-1.18-0.43c-2.54,3.4-5.56,6.85-8.47,10.76
	c-5.03,6.76-10.31,16.87-13.41,25.14C313.9,302.08,311.54,313.09,310.79,314.17"/>
<path fill-rule="evenodd" fill="#0495D1" d="M465.08,158.63c-7.71,2.87-75.95,1.92-82.3-1.81c-4.91,0.81-21.61-3.16-26.99-4.53
	c-9.59-2.45-15.03-4.89-21.77-9.39c9.63,12.1,26.72,14.97,43.01,16.84c37.69,4.31,74.78,4.69,112.39-0.62
	c7.18-1.01,18.04-2.76,24.27-5.47c6.07-2.64,14.01-8.39,15.54-14.16c-16.45-0.14-34.37-5.74-48.42-11.2
	c-7.23-2.81-14.03-5.67-20.76-9c-4.66-2.31-16.23-8.92-20.68-9.74c1.77,1.47,6.77,3.7,9.47,5.18
	c18.26,10.02,29.39,16.57,50.43,23.09c10.06,3.12,13.41,4.44,24.49,3.99c-4.05,7.97-17.34,10.76-25.23,12.42
	C490.08,155.99,473.42,158.77,465.08,158.63"/>
<path fill-rule="evenodd" fill="#1D6682" d="M359.58,314.48l-27.53,0c2.65-11.54,14.63-14.53,25.53-11.4l-9.24-12.02
	c-6.14-6.35-1.64-3.85-10.99-10.67l1.58-0.38c-2.14-1.36-5.8-0.93-8.58-1.02c-4.29,5.57-13.38,23.79-7.5,32.33
	c1.24,1.8,3.8,4.35,6.04,5.13c6.39,2.22-1.39-1.46,8.93-1.6C343.55,314.76,354.79,315.54,359.58,314.48"/>
<path fill-rule="evenodd" fill="#0992C5" d="M399.71,120.17c6.36-0.8,17.26-9.29,24.52-10.6c-1.01,2.93-4.02,8.53-5.62,12
	c-5.84,12.72-9.03,27.45-20.22,32.25c-0.09,0.9-1.42,1.86,4.17,1.51c9.41-0.58,21.75-3.35,26.02-12.15
	c5.27-10.84,2.01-27.5-3.62-35.05c-7.19,0.88-15,6.37-22.44,10.15L399.71,120.17z"/>
<path fill-rule="evenodd" fill="#D6DDE3" d="M546.4,163.89c2.37-0.69,1.76-1.2,4.49-1.95c-1.74,13.82-25.02,51.34-34.1,65.95
	c-1.63,2.62-7.51,12.42-9.48,13.31c-0.55,1.97-7.77,11.73-9.38,13.95l-27.16,34.08c-0.73,0.8-0.63,0.84-1.28,1.65
	c-1.82,2.24-2.05,0.97-1.95,3.64l0.17,0.27c2.6-0.15,1.01,0.87,2.96-1.58l11.83-14.43c4.79-5.5,8.83-11.07,13.34-16.99
	c4.35-5.72,8.58-11.42,12.76-17.56c16.05-23.54,33.17-50.63,43.43-77.94l5.52-17.24c1.74-7.04,0.31-4.85,1.97-5.58
	c1.05,3.59,0.87,7.91,0.44,11.65c-0.2,1.7-0.44,3.29-0.78,4.99c-0.32,1.64-0.82,3.18-0.05,4.43c2.98-9.8,11.99-29.37,3.38-43.31
	c-0.02-0.04-0.71-1.03-0.73-1.06l-1.26-1.36c0.8,6.22-3.39,18.46-5.5,24.27c-1.33,3.65-2.65,6.86-4.19,10.41
	C549.67,156.18,546.97,161.21,546.4,163.89"/>
<path fill-rule="evenodd" fill="#147194" d="M382.98,245.89c-0.78,7.04,7.97,21.78,12.73,27.54c0.75,0.91,2,1.98,2.62,2.8
	c-1.01-4.68-8.22-18.72-7.03-22.99c3.46,8.76,14.72,24.59,22.17,31.02c4.25,3.68,2.04,3.6,10.99,10.03c3.5,2.52,4.1,2.22,8.79,1.68
	c-0.61-2.89-3.04-1.45-3.97-6.66c-0.74-4.12-2.64-3.8-5.23-6.29l-16.11-18.88c-1.88-2.31-3.03-4.49-4.77-6.89l-8.01-12.45
	c-0.82-1.23,0.33,0.35-0.52-0.72c-0.52-0.66-0.44-0.54-0.96-1.04c2.41,8.3,10.44,16.5,12.89,24.27
	c-3.83-2.67-13.63-16.08-16.13-20.68l-3.5-7.78c-0.04-0.22-0.16-0.27-0.25-0.4l0.1,0.08c-2.46-1.48-0.96,0.38-3.88-0.56
	C382.74,240.94,383.42,244.26,382.98,245.89"/>
<path fill-rule="evenodd" fill="#F9FAFA" d="M458.95,290.02l15.66-17.93c1.82-2.13,3.33-4.17,5.25-6.42l19.56-24.88
	c0.72-1.84,1.89-3.33,3.09-4.96l9.63-13.72c4.27-6.09,8.28-12.13,12.25-18.68c3.59-5.94,21.43-34.67,22.01-39.54
	c0.57-2.68,3.27-7.71,4.44-10.4c1.54-3.54,2.86-6.75,4.19-10.41c2.12-5.81,6.31-18.05,5.5-24.27c-0.37-1.67-0.16-1.32-1.44-2.52
	c-1.12,4.48-1.35,9.41-2.62,14.16c-9.37,34.98-47.83,92.88-68.96,120.68c-8.06,10.61-16.48,19.64-23.15,28.21
	c-1.44,1.85-2.76,2.75-4.23,4.51c-1.42,1.7-2.63,2.98-4.01,4.9L458.95,290.02z"/>
<path fill-rule="evenodd" fill="#162B34" d="M509.52,408.76c2.79,0.99,15.72,0.75,19.38,0.4c0.52-5.26,0.17-12.67,0.18-18.31
	c0.02-11.15,1.6-9.23-9.83-8.71c-10.48,0.48-10.31-2.04-10.3,8.12C508.95,394.41,508.51,405.92,509.52,408.76"/>
<path fill-rule="evenodd" fill="#98B2BE" d="M546.4,163.89c-0.59,4.87-18.42,33.6-22.01,39.54c-3.96,6.55-7.98,12.59-12.25,18.68
	l-9.63,13.72c-1.21,1.62-2.38,3.11-3.09,4.96c1.61,0.45,0.32,0.37,1.6-0.05c2.31-0.76,1.91-1.65,6.3,0.47
	c1.97-0.89,7.85-10.69,9.48-13.31c9.08-14.62,32.36-52.13,34.1-65.95C548.16,162.69,548.77,163.2,546.4,163.89"/>
<path fill-rule="evenodd" fill="#7898A9" d="M499.41,240.79l-19.56,24.88c-1.92,2.26-3.43,4.29-5.25,6.42l-15.66,17.93l8.59,4.51
	c-0.1-2.67,0.13-1.4,1.95-3.64c0.66-0.81,0.56-0.84,1.28-1.65l27.16-34.08c1.61-2.22,8.83-11.98,9.38-13.95
	c-4.39-2.12-3.99-1.24-6.3-0.47C499.73,241.16,501.02,241.24,499.41,240.79"/>
<path fill-rule="evenodd" fill="#0995CB" d="M402.41,310.76c-13.21,0.61-29.54,4.66-42.83,3.72c-4.79,1.05-16.03,0.28-21.77,0.36
	c-10.32,0.14-2.54,3.82-8.93,1.6c-2.24-0.78-4.8-3.32-6.04-5.13c-5.87-8.54,3.21-26.76,7.5-32.33c2.79,0.09,6.45-0.34,8.58,1.02
	c8.8,1.21,13.37,6.3,18.51,9.66c-6.3-8.5-8.01-15.13-19.55-25.51c-0.79,3.56-35.26,48.46-10.62,54.91
	C332.05,320.32,399.6,312.69,402.41,310.76"/>
<path fill-rule="evenodd" fill="#FCFCFD" d="M336.92,256.52c3.47-0.71-11-2.83-11.69-3c1.22-1.21,0.84-0.98,2.53-1.53
	c3.37-3.42,12.83-6.87,18.44-9.14c7.48-3.02,12.58-5.92,15.39-12.43l2.2,0.46c4.37,0.49,9.88,6.7,10.76,11.17l0.79-1.77
	c0.77-4.04-1.6-4.81,3.13-14.03c-0.9-1.84-6.63,1.98-8.37,2.57c-8.12,2.75-4.82-3.34-29.07,9.45
	c-10.88,5.74-23.76,13.41-27.76,23.72C323.53,257,321.64,255.37,336.92,256.52"/>
<path fill-rule="evenodd" fill="#0992C5" d="M327.75,251.99c6.96-0.82,20.92-7.1,26.9,1.82c2.35,3.51,4.51,7,6.87,10.63
	c2.02,3.12,5.31,7.38,7.75,9.6c-2.46-11.89-15.13-31.11-5.49-43.15l-2.2-0.46c-2.81,6.51-7.91,9.41-15.39,12.43
	C340.59,245.12,331.13,248.57,327.75,251.99"/>
<path fill-rule="evenodd" fill="#C55B41" d="M443.2,181.47c3.37,1.58,1.31-0.67,2.75,0.49c4.11-1.03,10.76-1.13,13.01,2.11
	c-6.19-0.98-9.27,1.67-12.55,4.66c3.34-0.38,7.35-0.52,10.23,0.67l-5.49,0.91c-0.84,2.65-0.66,3.55-3.37,4.11
	c-2.02,0.42-4.81-0.06-5.91-0.97c-2.33-1.06-1.1,0.12-2.08-1.59l-5.67-0.87l-2.36-0.1c-0.96-1.92-1.14-2.36-2.07-2.47l-1.43,0.54
	l0.08,7.01l-4.42,0.66c10.31-0.19,11.16,0.48,19.71,1.36c4.89,0.5,14.44-1.25,17.82-3.85c5.12-3.93,5.81-22.4-14.57-15.18
	l-2.69,1.46C443.47,181.05,443.74,180.83,443.2,181.47"/>
<path fill-rule="evenodd" fill="#0599CC" d="M537.43,300.84l0.9-10.05c1.45,1.68,1.75,3.92,2.24,6.37
	c2.05,10.27-1.1,12.16-4.02,16.76l-0.56,2.22c2.18-0.65,3.37-1.85,4.66-3.68c1.57-2.25,1.44-4.34,2.58-6.26
	c1.08,8.36,2.53,22.62-4.24,29.07c-0.21,0.2-1.18,1.11-1.2,1.14c-1.15,1.55-0.65,0.12-0.96,2.28c21.95-14.48,7.77-47.1-3.37-63.57
	c-2.01-2.97-2.78-5.1-7.82-4.23c-0.58,1.75-0.4,0.23,0.08,1.52l3.32,4.78c2.76,4.41,5.22,9.07,6.84,14.24
	C536.7,294.1,536.32,298.75,537.43,300.84"/>
<path fill-rule="evenodd" fill="#0494CC" d="M521.32,251.12c3.83,1.16,5.52,0.9,9.31,2.93c2.65,1.41,6.25,3.67,7.36,5.49
	c-13.83-2.39-11.65-1.44-24.13,1.87c-1.34,1.22-4.9,6.13-5.39,7.91c6.32-3.77,11.81-8.52,22.49-8.09c4.48,0.18,9.12,1.25,12.48,3.36
	c1.61,1.01,3.03,2.27,4.27,3.3c1.99,1.64,2.37,3.11,4.29,4.09c-2.72-12.01-17.79-26.03-26.31-27.72
	C524.46,245.77,521.83,249.46,521.32,251.12"/>
<path fill-rule="evenodd" fill="#E6845C" d="M420.13,187.74c3.45,2.32,4.66-0.29,6.53-1.62l0.53-1.1l1.06,3.95l1.43-0.54
	c0.92,0.1,1.11,0.54,2.07,2.47l2.36,0.1c-0.82-1.23-1.3-2.19-1.02-4.16c2.58,2.77,3.22,2.91,6.66,0.22
	c2.58-2.03,3.88-2.92,6.19-5.09c-1.44-1.16,0.62,1.09-2.75-0.49c-0.36,0.19-0.92,0.36-1.67,0.88l2.14-6.34l-31.62,0.16l8.58,1.13
	c-0.49,1.64-0.1,3.42,0.08,4.78c0.43,3.25-0.2,3.68,0.84,4.82C420.59,187.97,422.83,187.97,420.13,187.74"/>
<path fill-rule="evenodd" fill="#1B627E" d="M367.44,328.04c8.81-0.58,20.54-3.63,29.32-5.48c9.49-2,18.34-4.21,28.24-6.14
	c-0.08-2.13-0.38-5.22-1.45-6.65c0.5,2.16,0.15,1.11-6.15,2.48c-2.61,0.57-5.08,1.23-7.47,1.87l-28.79,8.6
	c-3.06,0.97-10.68,3.2-13.32,5.03C367.74,327.81,367.57,327.93,367.44,328.04"/>
<path fill-rule="evenodd" fill="#F2B28E" d="M408.98,197.56c2.67-0.66,2.4-0.35,4.09-2.34c-0.78,0.07,0.76,0.7-1.26-0.02
	c-1.8-0.63-1.05-0.25-1.93-1.17c-1.52-1.03-5.57-2.07-7.06-3.6l6.2-2.53c-4.11-3.06-8.71-3.74-10.4-4.69
	c3.44-1.66,5.46-1.72,9.58-0.61c0.12-1.89,0.47-1.84,0.72-3.68c0.34-2.5-0.54-0.34,0.3-2.91c-9.85-0.54-15.83-0.77-15.04,10.63
	c0.37,5.31,0.75,6.59,4.62,8.44C401.69,196.49,405.68,198.09,408.98,197.56"/>
<path fill-rule="evenodd" fill="#08A3D7" d="M435.84,293.29l0.07-1.28c0.08-0.42-1.52-2.74,6.01-1.67
	c7.09,1.01,18.05,6.05,23.73,9.43c4.68,2.79,9.66,5.76,13.43,8.75c1.19,0.94,1.48,1.27,2.8,2.44c3.8,3.38,1.73,0.86,5.61,5.49
	c1.75,2.09,1.03,2.23,3.13,2.5c2.54-3.99-1.51-5.72-3.49-8c-2.16-2.5-4.2-3.75-7.04-5.8c-4.69-3.38-10.21-6.8-15.9-9.77
	C433.27,279.25,426.97,287.88,435.84,293.29"/>
<path fill-rule="evenodd" fill="#0696C9" d="M508.8,283.97c0.49,4.35,3.63,17.31-2.49,22.38l0.12,2.08c2.8-1.32,5.71-4.83,7.41-8.21
	c1.82-3.62,2.81-8.48,2.84-12.8l0.67-4.42c1.93,3.39,2.56,8.19,3.31,12.66c3.45-9.72,0.18-15.12-3.3-21.03
	C514.32,275.96,510.09,280.68,508.8,283.97"/>
<path fill-rule="evenodd" fill="#1A6481" d="M422.65,263.64c-0.11,0.16-0.46,0.72-0.46,0.82c-0.03,1.06-0.11,0.25,0.29,0.94
	l1.69,0.05c2.42,0.58,4.5,2.08,7.79,0.76c1.99-0.8,5.23-4.55,6.18-6.53L429.6,260c5.01-3.19,7.16-2.8,11.46-7.46
	c1.48-1.61,2-1.47,2.9-3.41c-4.82,1.76-9.04,4.77-15.12,4.87c-6.96,0.11-10.37-2.87-15.09-4.78c1.57,2.59,2.75,4.77,4.68,7.32
	c1.76,2.33,3.71,4.84,5.84,6.43C423.29,264.34,424.65,263.32,422.65,263.64"/>
<path fill-rule="evenodd" fill="#157CA4" d="M463.95,250.46c0.87,2.63-8.6,14.99-10.49,17.4c-2.35,2.99-4.29,5.37-6.55,8.04
	c-1.81,2.15-5.56,4.99-6.84,7.16l3.36,0.57c0.95-0.82,0.75-0.8,1.58-1.48c3.86-3.2,0.77,0.45,5.22-5.29l6.82-7.73l-2.02,7.54
	c5.96-5.87,11.68-16.9,12.01-28.49C464.88,248.98,465.21,248.62,463.95,250.46"/>
<path fill-rule="evenodd" fill="#0A9ACC" d="M334.13,137.24c11.09,4.36,25.87,0.25,35.91-3.58c11.55-4.4,15.84-6.56,25.93-11.42
	l2.73-1.33c1.47-0.91,0.48-0.24,1.01-0.75c-2.91,0.41-11.3,4.16-15.02,5.45c-4.86,1.69-10.31,3.21-15.44,4.92
	C357.86,134.34,347,137.06,334.13,137.24"/>
<path fill-rule="evenodd" fill="#0599CC" d="M423.19,350.23l-0.75-2.22l-4.83,2.88c0.93,6.68,13.43,11.16,18.44,5.15l9.01-12.58
	c0.93-1.26,2.8-3.17,2.21-4.96c-2.24-1.1-3.9,2.17-7.26,6.91l-6.81,9.26C428.11,355.08,424.57,353.42,423.19,350.23"/>
<path fill-rule="evenodd" fill="#1D2B33" d="M445.95,181.96c-2.31,2.17-3.61,3.07-6.19,5.09c-3.43,2.69-4.08,2.56-6.66-0.22
	c-0.28,1.97,0.2,2.93,1.02,4.16l5.67,0.87l3.05-1.38l1.96,3.16l-2.93-0.2c1.1,0.9,3.9,1.38,5.91,0.97c2.72-0.56,2.53-1.46,3.37-4.11
	l5.49-0.91c-2.88-1.19-6.89-1.05-10.23-0.67c3.28-2.98,6.37-5.64,12.55-4.66C456.71,180.83,450.06,180.93,445.95,181.96
	 M446.86,191.93c1.17-1.16-1.69-0.22,1.59-1.38C447.36,192.49,449.18,191.35,446.86,191.93z"/>
<path fill-rule="evenodd" fill="#1D2B33" d="M402.81,190.43l7.35,0.13l1.24,3.6c3.16,0.79,4.51,0.45,6.49-2.08l0.75-0.98
	c0.05-0.07,0.16-0.23,0.26-0.33c5.71,0.8,6.39-0.7,7.75-4.66c-1.88,1.33-3.08,3.94-6.53,1.62c-2.92-0.32-9.44-3.63-11.93-5.13
	c-4.12-1.11-6.15-1.05-9.58,0.61c1.69,0.95,6.29,1.63,10.4,4.69L402.81,190.43z"/>
<path fill-rule="evenodd" fill="#166483" d="M479.46,244.25c-0.18,0.26-3.8,9.85-4.19,11.47c3.29-2.35,16.6-22.28,17.26-24.08
	c-2.56-1.55-6.84-2.3-9.95-2.79C482.99,232.24,483.22,241.95,479.46,244.25"/>
<path fill-rule="evenodd" fill="#F6F9FA" d="M387.53,189.77c-0.1-0.13-0.24-0.51-0.28-0.42l-1.3-4.66
	c-0.39-1.93-0.88-3.67-0.95-5.64c-0.47-12.9,22.96-4.55,31.41-7.46l-34.75-3.1c-1.18,11.73,0.84,15.24,5.09,22.93
	C387.21,190.78,387.11,191.61,387.53,189.77"/>
<path fill-rule="evenodd" fill="#F9FAFA" d="M386.68,238.46c0.09,0.13,0.22,0.17,0.25,0.4l3.5,7.78c2.51,4.6,12.3,18.01,16.13,20.68
	c-2.45-7.77-10.48-15.97-12.89-24.27c-3.52-7.13-0.97-6.59-7.39-10.82l-0.52,0.06C386.22,234.73,386.93,236.17,386.68,238.46"/>
<path fill-rule="evenodd" fill="#F6F9FA" d="M384.92,207.63c2.49,1.25,5.15,2.73,8.45,3.6c-1.87-3.4-5.04-4.04-6.91-8.45l9.29,1.28
	c2.02,0.24,4.6,0.83,6.43-0.33l0.61-0.58c0.06-0.06,0.16-0.22,0.25-0.33c-1.04-0.4-1.77-0.41-2.95-0.64
	c-2.92-0.56-2.55-0.86-3.34-1.46c-3.01-0.98-5.28-1.7-8.09-3.09c-3.24-1.6-4.87-3.17-7.23-4.46
	C381.73,197.82,383.42,203.93,384.92,207.63"/>
<path fill-rule="evenodd" fill="#1A6985" d="M482.46,302.49c0.95,2.29-0.49,0.42,1.71,2.13l5.94,4.26c2.01-1.58,1.35-0.63,2.62-2.94
	c2.82-5.16,2.69-9.89,0.2-15.3C490.29,292.91,487.07,298.61,482.46,302.49"/>
<path fill-rule="evenodd" fill="#F4F4F4" d="M423.92,247.44c-0.96-1.12-3.74-2.23-5.08-2.95c-9.74-5.26-25.37-19.41-29.48-28.54
	c2.39,0.75,3.8,1.84,6.54,1.92c-2.73-0.87-7.8-6.88-10.79-8.34c1.68,6.55,5.4,14.35,9.85,18.58c1.16,1.1,1.5,1.1,2.49,2.17
	C404.17,237.55,414.11,245.18,423.92,247.44"/>
<path fill-rule="evenodd" fill="#F7F7F7" d="M440.07,283.06c1.28-2.17,5.03-5.01,6.84-7.16c2.26-2.68,4.2-5.06,6.55-8.04
	c1.89-2.4,11.36-14.77,10.49-17.4c-3.29,2.56-11.15,13.58-13.58,16.64c-5.3,6.67-8.77,10.18-15.09,15.74L440.07,283.06z"/>
<path fill-rule="evenodd" fill="#F1A37B" d="M408.2,182.61c2.5,1.5,9.02,4.81,11.93,5.13c2.7,0.23,0.46,0.23,1.42-0.84
	c-1.04-1.14-0.41-1.58-0.84-4.82c-0.18-1.36-0.57-3.14-0.08-4.78l-8.58-1.13l-2.84-0.14c-0.84,2.57,0.04,0.4-0.3,2.91
	C408.66,180.77,408.32,180.71,408.2,182.61"/>
<path fill-rule="evenodd" fill="#0494CC" d="M465.09,171.26l4.18,2.37c3.98,2.81,2.54,10.7,2.25,16.56
	c4.82-3.22,6.9-13.21,6.92-19.94L465.09,171.26z"/>
<path fill-rule="evenodd" fill="#1D6682" d="M513.86,261.41c12.48-3.31,10.29-4.26,24.13-1.87c-1.11-1.82-4.71-4.08-7.36-5.49
	c-3.8-2.03-5.49-1.77-9.31-2.93C519.81,252.02,515.06,259.51,513.86,261.41"/>
<path fill-rule="evenodd" fill="#162A33" d="M369.91,383.35c-2.03,2.35-5.21,12.54-5.99,16.31l12.08-0.02L369.91,383.35z"/>
<path fill-rule="evenodd" fill="#1B6584" d="M506.31,306.35c6.12-5.07,2.98-18.03,2.49-22.38c-1.82,1.78-2.16,3.99-2.62,6.76
	c-2.2-1.39-2.38-3.45-7.24-7.4c1.02,3.46,3.17,6.87,4.62,10.62C505.33,298.5,505.55,301.42,506.31,306.35"/>
<path fill-rule="evenodd" fill="#1B627E" d="M458.14,338.26c-4.83-1.02-7.79-4.93-11.98-7.32c-4.09-2.34-9.28-4.73-15.07-4.55
	l-0.59-4.1l-0.02,7.53c11.6-0.22,18.55,9.7,23.44,9.8C456.3,339.66,457.01,339.24,458.14,338.26"/>
<path fill-rule="evenodd" fill="#162935" d="M537.43,300.84c-0.44,2.98-2.64,6.95-3.98,9.08l-5.44,7.44l8.54-3.44
	c2.91-4.59,6.07-6.49,4.02-16.76c-0.49-2.46-0.79-4.69-2.24-6.37L537.43,300.84z"/>
<path fill-rule="evenodd" fill="#289AC8" d="M374.54,242.05l2.54,23.64c0.84,1.77,0.49,0.97,1.18,1.76
	c0.1-7.64-3.49-29.06,2.15-36.75c2.82,0.25,2.59,0.95,5.36,1.59l0.52-0.06c-1.99-2.22-4.88-4.54-7.83-5.97
	c-4.73,9.22-2.36,9.99-3.13,14.03L374.54,242.05z"/>
<path fill-rule="evenodd" fill="#EE976F" d="M426.67,186.12c-1.36,3.96-2.04,5.46-7.75,4.66c-0.1,0.1-0.21,0.26-0.26,0.33
	l-0.75,0.98c-1.99,2.52-3.34,2.86-6.49,2.08l-1.53-0.13c0.88,0.92,0.13,0.54,1.93,1.17c2.02,0.71,0.48,0.08,1.26,0.02
	c-1.69,1.99-1.42,1.68-4.09,2.34c1.76,0.98,5.15,0.73,7.51,0.01c2.42-0.74,1.07-0.65,3.12-0.68c1.47-0.02,2.67-0.14,4.3-0.24
	l4.42-0.66l-0.08-7.01l-1.06-3.95L426.67,186.12z"/>
<path fill-rule="evenodd" fill="#1AACE3" d="M387.53,189.77c0.35-4.35-1.76-11.31,0.79-14.49c3.75-4.69,34.38,0.48,43.55-2.96
	l-15.45-0.73c-8.45,2.91-31.88-5.44-31.41,7.46c0.07,1.98,0.56,3.71,0.95,5.64l1.3,4.66C387.29,189.26,387.43,189.63,387.53,189.77"
	/>
<path fill-rule="evenodd" fill="#1698C8" d="M310.79,314.17c0.74-1.09,3.11-12.09,4.03-14.55c3.1-8.26,8.37-18.38,13.41-25.14
	c2.91-3.91,5.93-7.35,8.47-10.76l-1.18-0.79C326.06,271.47,309.89,299.52,310.79,314.17"/>
<path fill-rule="evenodd" fill="#FCFCFD" d="M426.58,309.61c8.16,1.29,8.83-5.81,21.76-7.46c-0.13-0.1-0.36-0.37-0.43-0.25
	c-0.02,0.04-2.24-0.95-2.63-2.29c-7.55,0.88-5.05,0.95-10.16,4.18c-2.99,1.9-6.56,2.72-10.31,3.65L426.58,309.61z"/>
<path fill-rule="evenodd" fill="#0A9BD3" d="M479.46,244.25c3.77-2.3,3.53-12.02,3.12-15.4c3.11,0.49,7.4,1.24,9.95,2.79l1.28-1.65
	c-3.35-1.67-10.51-2.55-14.86-3.09C480.33,234.06,480.53,236.85,479.46,244.25"/>
<path fill-rule="evenodd" fill="#0979A6" d="M430.96,338.78c-4.62,0.17-6.29,3.67-4.03,7.73l-2.64,0.54
	c-1.05,0.31-1.39,0.64-1.85,0.97l0.75,2.22c1.81-1.21,3.95-0.17,6.22,0.14c-0.47-2-1.28-1.57-1.25-3.76l3.46,0.33
	c-0.35-2.94-1.38-3.04-2.2-5.8l4.19,2.32l-1.42-3.96c0.89-1.08-0.18-0.35,1.89-0.58c-1.5-1.39,1.87-1.12-1.75-1.17
	c-0.15,0.17-0.46,0.32-0.55,0.38c-0.08,0.06-0.39,0.48-0.46,0.34C431.27,338.36,431.05,338.64,430.96,338.78"/>
<path fill-rule="evenodd" fill="#F6F9FA" d="M417.62,350.89l4.83-2.88c0.45-0.34,0.8-0.66,1.85-0.97l2.64-0.54
	c-2.25-4.06-0.59-7.56,4.03-7.73l-0.52-3.36c1.67-1.56,1.08-0.72,3.04-1.65l-2.76-0.04c-2.01,0.76-8.49,10.31-10.21,12.61
	C419.34,347.9,418.11,348.53,417.62,350.89"/>
<path fill-rule="evenodd" fill="#0D85B2" d="M422.48,265.39c-0.4-0.68-0.32,0.12-0.29-0.94c0-0.1,0.34-0.66,0.46-0.82l-6.86-3.47
	c1.77,3.97,9.31,14.88,12.06,15.36l1.48-2.47C426.69,269.72,424.37,269.34,422.48,265.39"/>
<path fill-rule="evenodd" fill="#166887" d="M459.46,334.97l0.19-2.68c2.08-0.36,2.9,3.62,6.22,1.1c2.12-1.61-0.5-4.83-0.16-7.9
	l-2.98,2.42c-1.76,2.14-2.39,2.33-5.11,4.2c-2.07,1.42-1.36,0.3-1.92,2.22C457.3,335.87,457.34,335.82,459.46,334.97"/>
<path fill-rule="evenodd" fill="#4DCEF1" d="M395.75,204.06c4.09,2.65,17.62-0.65,21.83-1.97c-0.81-0.3-0.09-0.08-0.56-1
	c-6.54,1.73-13.8,0.25-20.27-0.36c0.79,0.6,0.42,0.9,3.34,1.46c1.18,0.22,1.91,0.23,2.95,0.64c-0.09,0.1-0.19,0.27-0.25,0.33
	l-0.61,0.58C400.35,204.9,397.77,204.3,395.75,204.06"/>
<path fill-rule="evenodd" fill="#16546A" d="M451.17,235.59c3.24-1.49,1.93-1.04,4.19-3.17c1.45-1.36,2.59-1.91,4.12-3.49
	c1.74-1.8,4.97-5.8,6.25-8.79c-2.67,1.12-1.55,0.83-4.08,3.39l-7.21,7.37c-1.2,1.64-2.52,2.57-4.06,3.58
	C450.4,234.51,451.09,235.49,451.17,235.59"/>
<path fill-rule="evenodd" fill="#0D85B2" d="M430.96,338.78c0.08-0.13,0.3-0.41,0.36-0.3c0.07,0.14,0.38-0.28,0.46-0.34
	c0.09-0.07,0.4-0.22,0.55-0.38c3.62,0.05,0.25-0.22,1.75,1.17l2.54,0.93c-0.49-2.73-1.4-2.96-2.34-4.56l4.28,0.58
	c-1.87-1.59-4.53-4.29-7.84-2.15l2.76,0.04c-1.95,0.93-1.36,0.09-3.04,1.65L430.96,338.78z"/>
<path fill-rule="evenodd" fill="#F4F4F4" d="M409.88,194.03l1.53,0.13l-1.24-3.6l-7.35-0.13C404.31,191.96,408.35,193,409.88,194.03
	"/>
<path fill-rule="evenodd" fill="#E4E8EC" d="M439.79,191.86c0.98,1.71-0.26,0.53,2.08,1.59l2.93,0.2l-1.96-3.16L439.79,191.86z"/>
<path fill-rule="evenodd" fill="#D6D9DA" d="M446.86,191.93c2.32-0.58,0.5,0.56,1.59-1.38
	C445.17,191.71,448.03,190.77,446.86,191.93"/>
<path fill="#0696C9" d="M384.21,441.77l-3.5,13.91h-13.62c-0.98,0-1.86-0.14-2.64-0.43c-0.78-0.28-1.44-0.75-1.99-1.39
	c-0.55-0.65-0.96-1.49-1.23-2.52c-0.02-0.1-0.05-0.28-0.08-0.55c-0.03-0.27-0.05-0.63-0.05-1.07c0-0.63,0.05-1.33,0.16-2.1
	c0.11-0.76,0.31-1.66,0.61-2.67c0.3-1.01,0.7-2.07,1.2-3.18h7.38c-0.41,1.12-0.74,2.23-1,3.34c-0.26,1.11-0.44,1.93-0.54,2.46
	c0,0.88,0.35,1.46,1.06,1.76c0.7,0.3,1.67,0.44,2.89,0.44c0.22,0,0.55,0,0.98-0.01c0.43-0.01,0.75-0.01,0.94-0.01l1.94-7.97H384.21z
	 M385.9,433.19l-4.7,5.94h-16.96c1.07-1.77,2.32-3.1,3.76-3.98c1.45-0.88,2.69-1.44,3.75-1.66c1.06-0.22,1.81-0.33,2.26-0.33
	L385.9,433.19z"/>
<path fill="#0696C9" d="M408.49,455.72h-7.72l-1.35-7.74h-4.05l-5.06,7.74h-8.23l9.13-13.91h14.89L408.49,455.72z M405.78,439.13
	h-12.72l3.77-5.94h7.77L405.78,439.13z"/>
<path fill="#0696C9" d="M437.92,441.81l-3.24,13.91h-8.25l3.6-13.79h-0.08l-5.46,5.18l-3.95-5.07l-0.08-0.03l-3.41,13.71h-7.88
	l3.67-13.91H437.92z M439.95,433.19l-1.38,5.94h-24.98l1.53-5.94h7.07l3.97,5.72h0.08l4.08-5.72H439.95z"/>
<path fill="#0696C9" d="M449.6,441.83l-3.66,13.85h-7.69l3.74-13.85H449.6z M451.86,433.19l-1.55,5.94h-7.69l1.55-5.94H451.86z"/>
<path fill="#0696C9" d="M474.55,441.81l-3.32,13.91h-7.83l2.08-8.87l-3.86-4.82h-0.08l-3.58,13.69h-7.69l3.64-13.91H474.55z
	 M476.69,433.19l-1.46,5.94h-20.64l1.46-5.94h7.07l4.28,5.66h0.11l1.38-5.66H476.69z"/>
<path fill="#0696C9" d="M498.77,441.77l-3.5,13.91h-13.62c-0.98,0-1.86-0.14-2.64-0.43c-0.78-0.28-1.44-0.75-1.99-1.39
	c-0.55-0.65-0.96-1.49-1.23-2.52c-0.02-0.1-0.05-0.28-0.08-0.55c-0.03-0.27-0.05-0.63-0.05-1.07c0-0.63,0.05-1.33,0.16-2.1
	c0.11-0.76,0.31-1.66,0.61-2.67c0.3-1.01,0.7-2.07,1.2-3.18h7.38c-0.41,1.12-0.74,2.23-1,3.34c-0.26,1.11-0.44,1.93-0.54,2.46
	c0,0.88,0.35,1.46,1.06,1.76c0.7,0.3,1.67,0.44,2.89,0.44c0.22,0,0.55,0,0.98-0.01c0.43-0.01,0.75-0.01,0.94-0.01l1.94-7.97H498.77z
	 M500.46,433.19l-4.7,5.94H478.8c1.07-1.77,2.32-3.1,3.76-3.98c1.45-0.88,2.69-1.44,3.75-1.66c1.06-0.22,1.81-0.33,2.26-0.33
	L500.46,433.19z"/>
</svg>
